HIERARCHY
ROOT Hips
{
	OFFSET	0.000000	0.000000	0.000000
	CHANNELS 6 Xposition Yposition Zposition Zrotation Xrotation Yrotation
	JOINT LeftUpLeg
	{
		OFFSET	12.811937	-7.635976	0.557276
		CHANNELS 3 Zrotation Xrotation Yrotation
		JOINT LeftLeg
		{
			OFFSET	-0.429270	-42.206159	-1.204951
			CHANNELS 3 Zrotation Xrotation Yrotation
			JOINT LeftFoot
			{
				OFFSET	-2.112259	-42.464481	-3.973220
				CHANNELS 3 Zrotation Xrotation Yrotation
				JOINT LeftFootHeel
				{
					OFFSET	0.387196	-5.329707	-3.419729
					CHANNELS 3 Zrotation Xrotation Yrotation
					End Site
					{
						OFFSET	0.327567	-0.000003	16.505428
					}
				}
			}
		}
	}
	JOINT RightUpLeg
	{
		OFFSET	-12.811937	-7.635976	0.557276
		CHANNELS 3 Zrotation Xrotation Yrotation
		JOINT RightLeg
		{
			OFFSET	0.429270	-42.206159	-1.204951
			CHANNELS 3 Zrotation Xrotation Yrotation
			JOINT RightFoot
			{
				OFFSET	2.112259	-42.464481	-3.973220
				CHANNELS 3 Zrotation Xrotation Yrotation
				JOINT RightFootHeel
				{
					OFFSET	-0.387198	-5.329707	-3.419729
					CHANNELS 3 Zrotation Xrotation Yrotation
					End Site
					{
						OFFSET	-0.327566	-0.000003	16.505428
					}
				}
			}
		}
	}
	JOINT Spine
	{
		OFFSET	0.000000	13.731315	-1.007646
		CHANNELS 3 Zrotation Xrotation Yrotation
		JOINT Spine1
		{
			OFFSET	0.000000	12.091746	-0.604589
			CHANNELS 3 Zrotation Xrotation Yrotation
			JOINT LeftShoulder
			{
				OFFSET	5.746115	20.990027	-0.833816
				CHANNELS 3 Zrotation Xrotation Yrotation
				JOINT LeftArm
				{
					OFFSET	10.881538	-1.359258	0.219250
					CHANNELS 3 Zrotation Xrotation Yrotation
					JOINT LeftForeArm
					{
						OFFSET	4.390314	-31.537147	0.202818
						CHANNELS 3 Zrotation Xrotation Yrotation
						JOINT LeftHand
						{
							OFFSET	3.168650	-24.865023	5.373370
							CHANNELS 3 Zrotation Xrotation Yrotation
							End Site
							{
								OFFSET	1.457528	-10.806075	2.170267
							}
						}
					}
				}
			}
			JOINT RightShoulder
			{
				OFFSET	-5.746115	20.990027	-0.833816
				CHANNELS 3 Zrotation Xrotation Yrotation
				JOINT RightArm
				{
					OFFSET	-10.881538	-1.359258	0.219250
					CHANNELS 3 Zrotation Xrotation Yrotation
					JOINT RightForeArm
					{
						OFFSET	-4.390314	-31.537147	0.202818
						CHANNELS 3 Zrotation Xrotation Yrotation
						JOINT RightHand
						{
							OFFSET	-3.168650	-24.865023	5.373370
							CHANNELS 3 Zrotation Xrotation Yrotation
							End Site
							{
								OFFSET	-1.457528	-10.806075	2.170267
							}
						}
					}
				}
			}
			JOINT Neck
			{
				OFFSET	0.000000	27.075639	0.680489
				CHANNELS 3 Zrotation Xrotation Yrotation
				JOINT Head
				{
					OFFSET	0.000000	12.391287	1.239129
					CHANNELS 3 Zrotation Xrotation Yrotation
					End Site
					{
						OFFSET	0.000000	13.818691	-0.105853
					}
				}
			}
		}
	}
}
MOTION
Frames:     13
Frame Time: 0.016667
-11.353551	98.283912	-0.604462	6.157593	-8.406379	18.647802	8.209950	-4.511821	19.333055	7.610633	19.768562	-0.022986	-16.677919	0.987988	-13.150690	0.	0.	0.	-11.413420	6.170946	-14.110615	-6.805053	16.507990	-1.872306	14.778621	-9.826981	1.991386	0.	0.	0.	4.645057	5.222020	-4.577224	-0.372492	5.603669	0.365349	3.262915	-0.641672	-0.621633	-1.809494	0.531055	-9.920366	-0.500058	6.558877	-7.821721	7.870354	-6.703891	-4.347298	1.615779	3.355119	0.467823	-2.076998	-1.357392	-2.625961	-1.952847	0.917150	8.350366	-2.828844	-1.264166	42.524551	7.136289	5.055084	-3.048612	4.923128	1.535298	14.435890	
-11.355300	98.284571	-0.606965	6.162691	-8.404490	18.661003	8.203595	-4.513773	19.320719	7.611224	19.768368	-0.013448	-16.678318	0.990963	-13.159953	0.	0.	0.	-11.417481	6.173238	-14.122931	-6.805056	16.507990	-1.872306	14.778617	-9.826980	1.991387	0.	0.	0.	4.633766	5.223112	-4.565857	-0.364450	5.598919	0.371239	3.257812	-0.632662	-0.616362	-1.815911	0.525642	-9.908084	-0.511247	6.557274	-7.810594	7.849415	-6.689108	-4.326537	1.588916	3.353477	0.451684	-2.060863	-1.343971	-2.580932	-1.958085	0.932768	8.343763	-2.825638	-1.275834	42.518848	7.137275	5.088808	-3.008707	4.827591	1.436802	14.743906	
-11.369437	98.287904	-0.614962	6.181183	-8.397593	18.708967	8.184381	-4.518767	19.308599	7.617716	19.763313	-0.050946	-16.677725	0.989940	-13.156425	0.	0.	0.	-11.420824	6.179427	-14.138633	-6.807601	16.510872	-1.903754	14.778621	-9.826980	1.991387	0.	0.	0.	4.590889	5.227701	-4.517714	-0.332711	5.581378	0.384568	3.280411	-0.631575	-0.640115	-1.901215	0.540577	-9.761325	-0.534477	6.535384	-7.798094	7.853262	-6.684898	-4.257898	1.534209	3.306239	0.435076	-2.039307	-1.256386	-2.485368	-1.963355	0.933984	8.329927	-2.770875	-1.234827	42.536434	7.134437	5.217577	-2.868130	4.512278	1.172329	15.673073	
-11.385206	98.291363	-0.622166	6.198839	-8.391043	18.754278	8.158641	-4.560005	19.278175	7.633669	19.793791	-0.131960	-16.679619	0.971071	-13.090740	0.	0.	0.	-11.420646	6.184667	-14.144452	-6.810801	16.514473	-1.943193	14.778619	-9.826981	1.991386	0.	0.	0.	4.557366	5.229769	-4.496415	-0.311837	5.568586	0.406865	3.296266	-0.649128	-0.578229	-1.921289	0.576538	-9.716874	-0.568331	6.472439	-7.806873	7.881905	-6.705331	-4.211585	1.506646	3.255503	0.431786	-2.030636	-1.178220	-2.450935	-1.964843	0.920921	8.328093	-2.721962	-1.181754	42.572788	7.127003	5.287789	-2.798983	4.274468	1.060609	16.301842	
-11.389036	98.293698	-0.630381	6.208054	-8.387628	18.777985	8.144823	-4.580249	19.257196	7.642034	19.808710	-0.144803	-16.679232	0.968196	-13.081730	0.	0.	0.	-11.425591	6.188357	-14.160430	-6.812614	16.509617	-1.950360	14.779560	-9.821433	1.990835	0.	0.	0.	4.540447	5.230659	-4.487302	-0.304460	5.557313	0.468799	3.302041	-0.655298	-0.613916	-1.922596	0.588432	-9.773429	-0.596160	6.441109	-7.720538	7.899256	-6.711934	-4.180351	1.480788	3.201907	0.425216	-2.022004	-1.097673	-2.423768	-1.967885	0.908115	8.332689	-2.694093	-1.134013	42.612873	7.123073	5.321320	-2.813918	4.140171	1.014774	16.605547	
-11.391526	98.299434	-0.653514	6.225629	-8.381064	18.823336	8.118227	-4.620144	19.217125	7.659163	19.838125	-0.161145	-16.678848	0.965322	-13.072705	0.	0.	0.	-11.439603	6.196242	-14.202731	-6.817278	16.489552	-1.952313	14.783002	-9.801063	1.988825	0.	0.	0.	4.516655	5.229618	-4.498881	-0.294891	5.550443	0.486943	3.307839	-0.678006	-0.543381	-1.937658	0.628826	-9.617144	-0.601432	6.370322	-7.832232	7.938328	-6.719780	-4.118968	1.468304	3.174561	0.421139	-2.018916	-1.056542	-2.407780	-1.968952	0.901502	8.333581	-2.698889	-1.116832	42.629200	7.118620	5.371183	-2.780497	3.823895	0.956802	17.255493	
-11.394685	98.304676	-0.674591	6.243474	-8.374356	18.869600	8.091563	-4.657627	19.175993	7.662450	19.861982	-0.146635	-16.666321	0.973127	-13.087720	0.	0.	0.	-11.453813	6.204272	-14.245910	-6.821234	16.472565	-1.953986	14.785933	-9.783807	1.987138	0.	0.	0.	4.483370	5.231496	-4.479102	-0.275443	5.536378	0.524207	3.315280	-0.699987	-0.519997	-1.947515	0.665118	-9.569013	-0.623915	6.303826	-7.840107	7.985415	-6.717793	-4.090527	1.445782	3.117281	0.414323	-2.017528	-0.971798	-2.370666	-1.971197	0.887324	8.337319	-2.695756	-1.117881	42.671745	7.106377	5.478071	-2.709690	3.521389	0.855631	17.786180	
-11.402843	98.310122	-0.694103	6.263365	-8.366817	18.921350	8.074018	-4.663815	19.207649	7.665849	19.848751	-0.219207	-16.649698	0.978262	-13.091760	0.	0.	0.	-11.464115	6.212198	-14.280085	-6.825779	16.459810	-1.970654	14.788363	-9.769438	1.985696	0.	0.	0.	4.448663	5.232762	-4.465507	-0.256445	5.522116	0.564789	3.327307	-0.722034	-0.498362	-1.962013	0.700547	-9.524057	-0.649404	6.238791	-7.841229	8.033319	-6.705789	-4.108440	1.426680	3.056458	0.408673	-2.014081	-0.895241	-2.322251	-1.982989	0.884470	8.341507	-2.687668	-1.134641	42.728340	7.030238	5.588878	-2.566054	3.271386	0.770169	18.197929	
-11.412249	98.313581	-0.706480	6.285559	-8.358328	18.979362	8.058604	-4.661476	19.267921	7.674026	19.824089	-0.331399	-16.633970	0.981811	-13.091594	0.	0.	0.	-11.474884	6.220919	-14.316655	-6.831298	16.458557	-1.985659	14.791435	-9.767160	1.982011	0.	0.	0.	4.402355	5.236694	-4.422546	-0.224551	5.505361	0.572778	3.339310	-0.743215	-0.478448	-1.976203	0.733901	-9.479680	-0.676078	6.178795	-7.843561	8.077717	-6.690315	-4.154806	1.414701	2.996101	0.399576	-2.004609	-0.856875	-2.256293	-2.011461	0.917794	8.341556	-2.683308	-1.150052	42.810596	6.956902	5.644875	-2.508788	3.012270	0.748288	18.659189	
-11.409037	98.313687	-0.716453	6.309697	-8.349034	19.042654	8.037800	-4.664045	19.293411	7.669080	19.804968	-0.410263	-16.611919	0.986781	-13.091352	0.	0.	0.	-11.486561	6.230429	-14.356532	-6.854846	16.461409	-1.976960	14.808542	-9.773342	1.959158	0.	0.	0.	4.361499	5.237960	-4.408146	-0.202259	5.490076	0.604636	3.349604	-0.761911	-0.463172	-1.987222	0.763197	-9.449639	-0.705616	6.140460	-7.849582	8.109797	-6.693485	-4.184942	1.400458	2.938465	0.386938	-2.025754	-0.820336	-2.200124	-2.007898	0.950403	8.357755	-2.683404	-1.161455	42.908730	6.921741	5.746438	-2.467273	2.708980	0.686361	19.080822	
-11.421919	98.317021	-0.728245	6.337321	-8.338325	19.115337	8.003389	-4.694192	19.255342	7.678160	19.820913	-0.441050	-16.603933	0.985398	-13.092299	0.	0.	0.	-11.494505	6.240412	-14.388509	-6.866211	16.465239	-2.004639	14.815014	-9.775688	1.950446	0.	0.	0.	4.327775	5.235157	-4.438037	-0.193526	5.476768	0.674252	3.355971	-0.777143	-0.455053	-1.992316	0.788087	-9.444488	-0.742589	6.136400	-7.859068	8.134215	-6.731938	-4.161232	1.385687	2.885804	0.364238	-2.044945	-0.791401	-2.142921	-2.004215	0.985396	8.375172	-2.644311	-1.154423	42.754456	6.918068	5.802048	-2.502295	2.365468	0.665975	19.521864	
-11.431850	98.319472	-0.740236	6.367567	-8.326521	19.195177	7.959997	-4.748645	19.190901	7.685369	19.863861	-0.439752	-16.587343	0.983152	-13.105740	0.	0.	0.	-11.498654	6.250509	-14.412147	-6.889116	16.470984	-2.034345	14.829420	-9.780993	1.930589	0.	0.	0.	4.279900	5.236022	-4.430282	-0.168485	5.459894	0.703642	3.358934	-0.790397	-0.453441	-1.993011	0.810574	-9.462273	-0.776621	6.132356	-7.856148	8.135066	-6.743999	-4.083549	1.377183	2.864542	0.356942	-2.071689	-0.797848	-2.105422	-1.998335	1.025664	8.387307	-2.689318	-1.182593	43.114330	6.894685	5.915871	-2.465961	2.050048	0.580693	19.855818	
-11.438027	98.321245	-0.753110	6.399137	-8.314642	19.278528	7.915308	-4.799672	19.122320	7.692073	19.894018	-0.432028	-16.572086	0.991887	-13.121814	0.	0.	0.	-11.504417	6.261808	-14.440785	-6.916348	16.476038	-2.051588	14.846547	-9.788018	1.901508	0.	0.	0.	4.230237	5.237589	-4.421786	-0.142304	5.442639	0.728508	3.360888	-0.802183	-0.450401	-1.992805	0.831402	-9.480453	-0.812021	6.127787	-7.850237	8.140093	-6.738521	-3.980318	1.371489	2.857233	0.355570	-2.101486	-0.815550	-2.071287	-1.991669	1.063333	8.394985	-2.694887	-1.189578	43.223373	6.845082	5.996129	-2.422283	1.767076	0.526086	20.147715	
